<?xml version="1.0" encoding="utf-8"?>
<!-- Svg Vector Icons : http://www.onlinewebfonts.com/icon -->
<!DOCTYPE svg PUBLIC "-//W3C//DTD SVG 1.1//EN" "http://www.w3.org/Graphics/SVG/1.1/DTD/svg11.dtd">
<svg version="1.1" xmlns="http://www.w3.org/2000/svg" xmlns:xlink="http://www.w3.org/1999/xlink" x="0px" y="0px" viewBox="0 0 256 256" enable-background="new 0 0 256 256" xml:space="preserve">
<metadata> Svg Vector Icons : http://www.onlinewebfonts.com/icon </metadata>
<g><g><g><path fill="#000000" d="M120.5,10.1c-18.3,1.6-32.6,5.6-47.4,13.3C51.6,34.6,33.3,53.2,22.4,74.9C14,91.8,10,108.7,10,128c0,19.3,4,36.3,12.4,53c9.6,19.2,25.8,36.7,44.4,48c38.7,23.6,88.4,22.6,126.4-2.7c49.1-32.6,66.6-95.9,41.4-149.1c-5.9-12.3-13-22.3-23.2-32.6c-18.9-18.9-41-29.9-67.7-33.7C138.8,10.3,124.5,9.7,120.5,10.1z M106.4,82.1c1.1,1.1,1.4,2.6,0.9,4.1c-0.1,0.4-10.6,9.1-23.2,19.3l-22.9,18.6l72.9,0.1l73,0.1l1.2,1.2c1.4,1.5,1.6,3.3,0.3,4.8l-0.9,1.1l-73.7,0.2l-73.7,0.2l16.3,12.9c8.9,7.1,19.4,15.4,23.3,18.5c3.9,3.1,7.2,6.1,7.5,6.8c0.6,1.5,0.3,2.8-1.1,4.1c-2.3,2.2-1.9,2.5-31.5-21.1c-15.2-12.1-27.9-22.3-28.3-22.8c-0.6-0.8-0.7-2.3-0.3-3.5c0.2-0.6,17.7-15,51.1-41.9C103.1,80.4,104.5,80,106.4,82.1z"/></g></g></g>
</svg>